# xmcd
#
# Track frame offsets:
#	150
#	11152
#	22872
#	35342
#	44822
#	56972
#	68500
#	81480
#	94970
#	107600
#	118295
#	130737
#	140930
#	149637
#
# Disc length: 2141 seconds
#
# Revision: 0
# Processed by: cddbd v1.5.2PL0 Copyright (c) Steve Scherf et al.
# Submitted via: EasyCDDAExtractor 2010.6.0.0
#
DISCID=d7085b0e
DTITLE=Various Artist - Country Rarities - SIGLA
DYEAR=1900
DGENRE=Country
TTITLE0=Ferlin Husky - San Antonio Rose
TTITLE1=Willie Nelson - Happiness Lives Next Door
TTITLE2=Ace Cannon - Your Cheatin' Heart
TTITLE3=Barbara Mandrell - Release Me
TTITLE4=Kenny Rogers - Reuben James
TTITLE5=Carl Perkins - Standing In The Need Of Love
TTITLE6=Donna Fargo - Daddy
TTITLE7=Roy Drusky - Good Hearted Woman
TTITLE8=Johnny Cash - Folson Prison Blues
TTITLE9=Dolly Parton - It Wasn't God Who Made Honky Tonk Angels
TTITLE10=Tex Ritter - High Noon
TTITLE11=Freddy Fender - Before The Next Teardrop Falls
TTITLE12=Bob Luman - Let's Think About Living
TTITLE13=Porter Waggoner - Enough To Make A Grown Man Cry
EXTD=
EXTT0=
EXTT1=
EXTT2=
EXTT3=
EXTT4=
EXTT5=
EXTT6=
EXTT7=
EXTT8=
EXTT9=
EXTT10=
EXTT11=
EXTT12=
EXTT13=
PLAYORDER=
